<svg xmlns:xlink="http://www.w3.org/1999/xlink" xmlns="http://www.w3.org/2000/svg" width="102" height="35" viewBox="-10 0 145 20"><title>Apple Books logo</title><path d="M38.593 20.402H33.86l-1.137 3.356h-2.005l4.484-12.418h2.083l4.483 12.419h-2.04l-1.135-3.357zm-4.243-1.549h3.752l-1.85-5.447h-.051l-1.851 5.447zM51.45 19.232c0 2.865-1.505 4.682-3.778 4.682-1.298 0-2.332-.638-2.848-1.645h-.043v4.485h-1.859v-12.05h1.8v1.558h.033c.533-1.04 1.575-1.704 2.883-1.704 2.298 0 3.813 1.808 3.813 4.674zm-1.91 0c0-1.893-.92-3.107-2.392-3.107-1.42 0-2.375 1.24-2.375 3.107 0 1.885.946 3.107 2.375 3.107 1.471 0 2.392-1.205 2.392-3.107zM61.415 19.232c0 2.865-1.506 4.682-3.778 4.682-1.299 0-2.332-.638-2.849-1.645h-.042v4.485h-1.859v-12.05h1.799v1.558h.034c.533-1.04 1.575-1.704 2.883-1.704 2.298 0 3.812 1.808 3.812 4.674zm-1.91 0c0-1.893-.92-3.107-2.392-3.107-1.42 0-2.375 1.24-2.375 3.107 0 1.885.946 3.107 2.375 3.107 1.471 0 2.392-1.205 2.392-3.107zM62.92 11.34h1.86V23.76h-1.86V11.34zM74.456 21.1c-.26 1.652-1.825 2.83-3.899 2.83-2.66 0-4.268-1.798-4.268-4.655 0-2.84 1.634-4.733 4.19-4.733 2.514 0 4.08 1.772 4.08 4.517v.637h-6.394v.112c0 1.576.946 2.617 2.435 2.617 1.059 0 1.842-.534 2.09-1.326h1.766zm-6.283-2.703H72.7c-.043-1.385-.921-2.358-2.221-2.358-1.299 0-2.211.99-2.306 2.358zM79.801 23.759V11.34h4.957c2.203 0 3.65 1.222 3.65 3.098 0 1.317-.973 2.496-2.212 2.702v.07c1.686.19 2.822 1.384 2.822 3.037 0 2.186-1.592 3.511-4.233 3.511H79.8zm1.928-7.135h2.16c1.67 0 2.59-.689 2.59-1.92 0-1.151-.791-1.79-2.186-1.79H81.73v3.71zm2.66 5.56c1.737 0 2.658-.715 2.658-2.057s-.946-2.031-2.77-2.031h-2.548v4.087h2.66zM90.237 19.232c0-2.909 1.712-4.69 4.294-4.69s4.294 1.781 4.294 4.69c0 2.917-1.704 4.698-4.294 4.698s-4.294-1.78-4.294-4.698zm6.695 0c0-2.006-.946-3.159-2.401-3.159-1.454 0-2.4 1.153-2.4 3.16 0 2.013.946 3.166 2.4 3.166 1.462 0 2.401-1.153 2.401-3.167zM100.13 19.232c0-2.909 1.712-4.69 4.294-4.69 2.583 0 4.296 1.781 4.296 4.69 0 2.917-1.704 4.698-4.296 4.698-2.59 0-4.294-1.78-4.294-4.698zm6.696 0c0-2.006-.947-3.159-2.402-3.159-1.454 0-2.401 1.153-2.401 3.16 0 2.013.947 3.166 2.401 3.166 1.464 0 2.402-1.153 2.402-3.167zM115.766 14.705h2.186l-3.752 3.898 3.898 5.155h-2.16l-3.072-4.018-.775.766v3.252h-1.859V11.34h1.86v7.247h.017l3.657-3.882zM122.106 14.542c2.109 0 3.478 1.17 3.537 2.84h-1.747c-.102-.878-.748-1.43-1.79-1.43-1.007 0-1.677.491-1.677 1.215 0 .567.413.955 1.394 1.178l1.472.336c1.85.43 2.555 1.154 2.555 2.461 0 1.653-1.54 2.788-3.674 2.788-2.264 0-3.623-1.11-3.795-2.83h1.84c.173.946.819 1.41 1.955 1.41 1.119 0 1.806-.464 1.806-1.205 0-.585-.335-.928-1.325-1.152l-1.472-.345c-1.72-.395-2.572-1.221-2.572-2.539 0-1.617 1.411-2.727 3.493-2.727z"></path><g><path d="M34.166 7.315c-1.715 0-2.798-1.221-2.798-3.177 0-1.93 1.095-3.172 2.79-3.172 1.377 0 2.375.78 2.58 2.006h-.943c-.235-.73-.81-1.129-1.637-1.129-1.12 0-1.83.886-1.83 2.287 0 1.427.714 2.308 1.851 2.308.99 0 1.67-.604 1.679-1.502v-.13h-1.561v-.79h2.484v.756c0 1.549-1.028 2.543-2.615 2.543zM41.952 5.934c-.197.815-.936 1.322-1.981 1.322-1.31 0-2.11-.898-2.11-2.358s.818-2.387 2.106-2.387c1.272 0 2.04.868 2.04 2.303v.315H38.78v.05c.029.802.495 1.31 1.216 1.31.546 0 .92-.198 1.087-.555h.869zM38.78 4.462h2.307c-.02-.718-.457-1.183-1.124-1.183s-1.133.47-1.183 1.183zM44.43 1.461V2.62h.99v.76h-.99v2.35c0 .478.197.688.647.688.138 0 .218-.008.344-.02v.75a2.894 2.894 0 01-.491.047c-1.003 0-1.402-.353-1.402-1.234V3.38h-.726v-.76h.726V1.46h.902zM48.975 1.218c0-.327.256-.592.571-.592.315 0 .57.265.57.592a.58.58 0 01-.57.587.58.58 0 01-.57-.587zm.122 1.38h.898v4.57h-.898v-4.57zM52.667 1.461V2.62h.991v.76h-.99v2.35c0 .478.197.688.646.688.138 0 .218-.008.344-.02v.75a2.894 2.894 0 01-.491.047c-1.003 0-1.401-.353-1.401-1.234V3.38h-.727v-.76h.726V1.46h.902zM57.091 4.881c0-1.473.822-2.37 2.157-2.37 1.33 0 2.152.897 2.152 2.37 0 1.481-.818 2.375-2.152 2.375-1.339 0-2.157-.893-2.157-2.375zm3.382 0c0-.99-.445-1.57-1.225-1.57-.785 0-1.226.58-1.226 1.57 0 1 .441 1.574 1.226 1.574.78 0 1.225-.58 1.225-1.574zM62.604 2.598h.869v.726h.067c.222-.507.675-.814 1.363-.814 1.02 0 1.582.613 1.582 1.7v2.958h-.902V4.436c0-.734-.319-1.099-.986-1.099s-1.091.445-1.091 1.158v2.673h-.902v-4.57z"></path></g><g><path fill-rule="evenodd" clip-rule="evenodd" d="M25.163 17.292c0 .3 0 .6-.002.901-.001.254-.004.507-.01.76a11.038 11.038 0 01-.146 1.652 5.577 5.577 0 01-.518 1.572 5.284 5.284 0 01-2.31 2.31 5.578 5.578 0 01-1.571.518c-.546.098-1.102.13-1.653.145-.253.007-.506.01-.76.011-.3.002-.6.002-.901.002h-9.42c-.301 0-.602 0-.902-.002a36.273 36.273 0 01-.76-.01 11.032 11.032 0 01-1.653-.146 5.575 5.575 0 01-1.57-.518 5.283 5.283 0 01-2.31-2.31 5.58 5.58 0 01-.519-1.572 11.04 11.04 0 01-.145-1.652c-.007-.253-.01-.507-.011-.76-.002-.3-.002-.6-.002-.901v-9.42c0-.301 0-.602.002-.902.001-.253.004-.506.011-.76.015-.55.047-1.107.145-1.652.1-.554.262-1.069.518-1.572a5.284 5.284 0 012.31-2.31A5.578 5.578 0 014.557.158C5.103.06 5.66.028 6.21.013c.253-.007.507-.01.76-.011C7.27 0 7.57 0 7.87 0h9.42c.301 0 .602 0 .902.002.254.001.507.004.76.011.551.015 1.108.047 1.653.145.553.1 1.068.262 1.57.518a5.283 5.283 0 012.311 2.31c.256.503.418 1.018.518 1.572.098.545.13 1.101.145 1.652.007.253.01.507.012.76l.001.901v9.42zM4.703 6.715c-.625.457-.666.917-.666 1.339v9.901c0 .422.28.475.666.19 2.093-1.52 4.656-1.442 6.154-.285 1.462 1.083 1.463 2.512 1.463 2.09V9.748c0-1.84-.254-2.028-.667-2.66-1.638-1.918-4.857-1.892-6.95-.373zm16.424 11.24c0 .422-.281.475-.667.19-2.093-1.52-4.656-1.442-6.154-.285-1.462 1.083-1.462 2.512-1.462 2.09V9.748c0-1.84.253-2.028.666-2.66 1.639-1.918 4.857-1.892 6.95-.373.625.457.667.917.667 1.339v9.901z"></path></g></svg>