<svg xmlns:xlink="http://www.w3.org/1999/xlink" xmlns="http://www.w3.org/2000/svg" width="102" height="35" viewBox="-7 -5 135 19"><title>Barnes and Noble logo</title><style>.bn-02{fill:#35614a}</style><path d="M67.7 16.2c-.9.8-2 1.2-3.2 1.2-1.2 0-2.1-.4-2.8-1.1-.7-.7-1-1.6-1-2.8 0-1.5.6-2.8 1.7-3.7l.1-.1 5.3 6.4-.1.1zM61.8 4.3c-.1-1 .3-1.9 1.1-2.3.7-.4 1.8-.4 2.4.2.6.5.9 1.2.9 2.2C66 5.8 65.4 7 64 8.1l-.1.1-.1-.1c-1.1-1.2-1.9-2.3-2-3.8m11.4 13.4c-.6 0-1.1-.2-1.6-.6-.4-.4-.9-.9-1.4-1.7v-.2c.8-1.2 1.2-2.7 1.2-4.4 0-.4 0-.7-.1-1.2 0-.2.1-.4.3-.4l1.3-.2v-.3h-4.6V9l1.3.3c.2 0 .3.1.4.2.1.1.2.2.2.4 0 .3.1.7.1 1.2 0 1.2-.3 2.4-.8 3.4l-.1.2-5.3-6.1.2-.1c2.3-1.2 3.4-2.5 3.4-4.2 0-1.1-.3-1.9-1-2.5-.7-.6-1.6-.9-2.7-.9-1.2 0-2.3.4-3.1 1.1-.8.7-1.2 1.6-1.2 2.7 0 .6.1 1.2.4 1.8.2.6.8 1.4 1.6 2.5l.1.2-.2.1c-2.2 1.2-3.3 2.8-3.3 4.6 0 1.4.5 2.5 1.6 3.2 1.1.8 2.4 1.2 4 1.2 1.7 0 3.2-.5 4.6-1.6l.1-.1.1.1c.8 1.1 1.9 1.6 3 1.6.6 0 1.1-.1 1.7-.4l-.1-.4c.1.2 0 .2-.1.2" style="" fill="#99866A"></path><path class="bn-02" d="M77.7 9c.1 2.3.2 2.9.2 4.9v4.3h-2.8V1.4h2.8s1.4 4.9 1.6 6c.3 1.1.5 1.9.7 2.6-.1-1.6-.1-3.7-.1-5.3V1.3h2.8V18h-2.5s-1.6-5.2-1.9-6.2c-.3-.7-.5-1.6-.8-2.8M92.9 9.7c0 7.2-1.2 8.7-4 8.7-2.6 0-4-1.1-4-8.7 0-7.4 1.1-8.6 4-8.6s4 1.3 4 8.6m-3.2 0c0-2.6 0-4.2-.1-5.4-.1-1.2-.3-1.5-.7-1.5-.5 0-.7.2-.8 1.5-.1 1.2-.1 2.8-.1 5.4 0 3 0 4.2.1 5.4.1 1.3.3 1.4.8 1.4s.6-.1.7-1.4c.1-1.2.1-2.3.1-5.4M103.1 13.3c0 3.5-1.6 4.7-4.3 4.7h-3.9V1.4h3.9c3 0 3.8 1.8 3.8 4.6 0 2.1-.8 3.2-2.1 3.2 1.4-.1 2.6 1.4 2.6 4.1m-5.2-3.1v5.9h.8c.9 0 1.2-.5 1.2-3.1 0-1.9-.2-2.8-1.2-2.8h-.8zm0-6.9v4.8h.8c.8 0 1-.7 1-2.1 0-1.9-.2-2.7-1.2-2.7h-.6zM104.8 1.3v16.8h6.8v-2.5H108V1.3zM113.3 1.3v16.8h6.8v-2.5h-3.8v-4.9h2.9V8.4h-2.9V3.9h3.3V1.3zM8.9 13.3c0 3.5-1.6 4.7-4.3 4.7H.7V1.3h3.9c3 0 3.8 1.8 3.8 4.6 0 2.1-.8 3.2-2.1 3.2 1.4 0 2.6 1.5 2.6 4.2m-5.2-3.1v5.9h.8c.9 0 1.2-.5 1.2-3.1 0-1.9-.2-2.8-1.2-2.8h-.8zm0-6.9v4.8h.8c.8 0 1-.7 1-2.1 0-1.9-.2-2.7-1.2-2.7h-.6zM25.9 9.5c1.9.6 2.2 2.8 2.2 4.8 0 1.6 0 3 .3 3.8h-3.2c-.1-.6-.2-1-.2-2.5v-2.1c0-1.3-.5-2.3-1.4-2.6h-.2v7.2h-3.1V1.3h4.6c2.2 0 3.6 1.2 3.6 4.2-.1 2.7-1.3 3.8-2.6 4m-2.6-6.1v4.9h.9c.8 0 1.1-.5 1.1-2.1 0-2.5-.5-2.8-1.4-2.8h-.6zM33.1 9c.1 2.3.2 2.9.2 4.9v4.3h-2.8V1.3h2.8s1.4 4.9 1.6 6c.3 1.1.5 1.9.7 2.6-.1-1.6-.1-3.7-.1-5.3V1.3h2.8v16.8h-2.5s-1.6-5.2-1.9-6.2c-.3-.8-.6-1.7-.8-2.9M40.6 1.3v16.8h6.8v-2.5h-3.8v-4.9h2.9V8.4h-2.9V3.8h3.3V1.3zM51.9 14.2c0 1.9.4 2.2 1.1 2.2.5 0 1-.3 1-2.2 0-1.7-1.1-2.8-2.5-4.4C50.4 8.5 49 6.6 49 5c0-2.5 1.2-4 3.6-4 2.4 0 3.7 1.3 3.7 3.7 0 .6-.1 1-.2 1.4h-2.6c0-.3.1-.7.1-1.2 0-1.6-.2-2.1-.9-2.1s-.8.6-.8 1.8c0 1.5 1.2 2.7 2.3 4 1.5 1.8 2.6 3.3 2.6 5 0 2.7-1.2 4.7-3.9 4.7-2.4 0-3.9-1.2-3.9-4.2 0-.7 0-1.2.2-1.8H52c0 .8-.1 1.2-.1 1.9M10 18.1l2.5-16.9h3l3 16.9h-3.2l-.3-2.7h-2l-.3 2.7H10zm3.2-4.6h1.6s-.2-1.9-.4-3.2c-.1-.8-.4-3.2-.5-4.9 0 1.7-.3 4.1-.4 4.9-.1 1.3-.3 3.2-.3 3.2" fill="#35614A"></path></svg>