<svg xmlns:xlink="http://www.w3.org/1999/xlink" xmlns="http://www.w3.org/2000/svg" width="102" height="35" viewBox="-7 0 160 18"><title>Bookshop logo</title><g id="⚙-Symbols" stroke="none" stroke-width="1" fill="none" fill-rule="evenodd"><g id="Atom-Image-Assets-/-Logo-/-Dark" transform="translate(0.000000, 0.000000)" fill="none"><g id="Bookshop_Logo_Dark" transform="translate(0.000000, 0.000150)" fill="none"><path d="M137.533089,9.32713188 C138.062124,9.32713188 138.164692,9.67709928 138.164692,10.2326031 L138.164692,10.2326031 L138.164692,10.7881069 C138.164692,11.0436387 138.213277,11.0436387 138.213277,11.0436387 C138.380624,11.0436387 138.531777,10.9158728 138.753108,10.7158914 L138.753108,10.7158914 L138.861074,10.6214558 C139.647477,9.86518541 140.678378,9.43570737 141.75457,9.41601249 C144.804617,9.41601249 146.861374,11.7157983 146.845274,15.1488119 C146.845274,18.8706875 144.388947,21.6815368 141.149959,21.6815368 C140.133758,21.6768751 139.136355,21.3992218 138.256463,20.8760562 L138.256463,20.8760562 L138.164692,20.9316066 C138.164692,22.5703429 138.191683,24.1146435 138.359031,24.4146156 C138.537376,24.6233028 138.79097,24.7477591 139.060812,24.7590279 C139.390109,24.8312434 139.724804,24.8979039 139.724804,25.2645364 C139.724804,25.9200309 138.796294,26.0533518 137.354945,26.0533518 C135.913595,26.0533518 134.958094,25.9200309 134.958094,25.2645364 C134.958094,24.920124 135.255001,24.8312434 135.541112,24.7423628 C135.767733,24.7059847 135.97439,24.5878421 136.12413,24.4090605 C136.290398,24.1499735 136.31035,22.7164893 136.312744,20.782445 L136.312676,15.6274997 C136.309258,13.0974968 136.276213,11.5753899 135.956782,11.3213906 C135.828715,11.2584187 135.688444,11.2261316 135.54651,11.2269549 C135.211815,11.2269549 134.752958,11.1602945 134.752958,10.6714511 C134.752958,10.0492868 136.453427,9.32713188 137.533089,9.32713188 Z M104.711346,9.30491173 C105.224186,9.30491173 106.001543,10.4436946 106.001543,11.8435642 C106.001543,12.399068 105.801806,12.7323703 105.369941,12.7323703 C104.938076,12.7323703 104.803118,12.4212881 104.614177,11.9991052 C104.581787,11.9324448 104.549397,11.8602293 104.517007,11.7824588 C104.095939,10.8714325 103.647879,10.4048093 102.568216,10.4048093 C102.11293,10.3760285 101.665407,10.5360808 101.325602,10.8492183 C100.985797,11.1623559 100.782019,11.6024916 100.759781,12.0713207 C100.759781,13.2828021 101.648819,13.7268271 103.275716,14.4534829 L103.502124,14.5544228 L104.355058,14.9321654 L104.533118,15.0113279 C105.699934,15.5718076 106.456026,16.7782806 106.4604,18.1152023 C106.4604,20.2372268 104.819313,21.714867 102.465648,21.714867 C101.964461,21.7034253 101.46701,21.6230916 100.98651,21.4760004 C100.783811,21.4055586 100.573528,21.3607886 100.360306,21.3426794 C100.217716,21.3572103 100.079731,21.4026472 99.9554327,21.4760004 C99.8462433,21.547118 99.7223609,21.5908795 99.5937457,21.6037662 C99.1402874,21.6037662 98.5140831,20.2427819 98.5140831,18.9762332 C98.4928836,18.764166 98.5590952,18.5526716 98.6966051,18.3932177 C98.834115,18.2337638 99.0303142,18.1409716 99.2374571,18.1374224 C99.5581169,18.1374224 99.7301071,18.3938985 99.9305195,18.7610643 L100.066998,19.0132668 C100.114983,19.0996785 100.167766,19.191028 100.225348,19.2873153 C100.667576,20.0877929 101.500878,20.5741329 102.39547,20.553864 C103.685667,20.553864 104.587185,19.7594936 104.587185,18.6484859 C104.587185,17.7541248 104.149922,17.1652907 103.070259,16.6431171 C102.77875,16.4986862 102.471047,16.3764753 102.141749,16.2431544 C101.236313,15.9461457 100.400146,15.4601375 99.6855171,14.8155096 C99.1089412,14.2474993 98.7865202,13.4592665 98.7947954,12.6379346 C98.7947954,10.7047813 100.338713,9.30491173 102.498038,9.30491173 C103.030089,9.32115878 103.557967,9.40702601 104.068947,9.56044348 C104.259662,9.42270324 104.480186,9.33498395 104.711346,9.30491173 Z M64.8717968,9.32713188 C68.1323778,9.32713188 70.5022372,11.8435642 70.4968481,15.2543576 C70.4968481,18.9151278 67.9434369,21.6926468 64.5586946,21.6926468 C63.0166246,21.7132131 61.5334793,21.0838462 60.4537378,19.9507244 C59.3739962,18.8176026 58.7916229,17.2793358 58.8418812,15.6932056 C58.7843269,14.0153851 59.3959054,12.3862974 60.5346724,11.184046 C61.6734394,9.98179455 63.2403735,9.31092101 64.8717968,9.32713188 Z M78.6320965,9.32713188 C81.9034742,9.32713188 84.2679352,11.8435642 84.251823,15.2543576 C84.251823,18.9151278 81.7037366,21.6926468 78.3135961,21.6926468 C76.7724572,21.7116836 75.2907299,21.0816436 74.2121731,19.9486952 C73.1336162,18.8157468 72.5519719,17.2783597 72.602181,15.6932056 C72.5446266,14.0153851 73.1562051,12.3862974 74.2949721,11.184046 C75.4337391,9.98179455 77.0006732,9.31092101 78.6320965,9.32713188 Z M127.70816,9.32713188 C130.995732,9.32713188 133.333202,11.8435642 133.327813,15.2543576 C133.327813,18.9151278 130.7798,21.6926468 127.389659,21.6926468 C125.847589,21.7132131 124.364444,21.0838462 123.284702,19.9507244 C122.204961,18.8176026 121.622587,17.2793358 121.672846,15.6932056 C121.616801,14.0148573 122.229618,12.3858208 123.369229,11.1837548 C124.508839,9.98168873 126.076276,9.3109848 127.70816,9.32713188 Z M88.6189755,4.01096035 C89.1696034,4.01096035 89.2721714,4.36092775 89.2721714,4.91643157 C89.2721714,5.24417882 89.2397815,5.70524699 89.2397815,6.35518646 C89.2019933,7.66062043 89.1372135,9.63821402 89.1372135,12.2879672 C89.1372135,13.3045392 89.1480102,14.2655608 89.2505781,14.2655608 C89.3531461,14.2655608 89.6986381,14.148905 90.7405125,13.0767826 C91.5880476,12.2101967 92.3600064,11.4047162 92.3600064,11.0547488 C92.3600064,10.8658775 92.1764637,10.7825519 91.9173447,10.6936713 C91.6582257,10.6047907 91.3775134,10.4992449 91.3775134,10.1937178 C91.3775134,9.67709928 92.1062857,9.47711791 93.9741019,9.47711791 C95.5774009,9.47711791 96.2359951,9.67154425 96.2359951,10.1492775 C96.2359951,10.4936899 95.9174946,10.5936806 95.4802313,10.7325565 C94.897122,10.89426 94.348072,11.1654553 93.8607374,11.532482 C92.8128695,12.2921666 91.8998323,13.2317113 91.1615809,14.3100011 C91.2734794,14.5770916 91.4225997,14.8259794 91.6042426,15.0488212 C93.5276415,17.702072 94.9003976,19.2272157 95.5827183,19.8325888 L95.6583756,19.8983695 L95.8105659,20.0013937 C96.0710519,20.1606168 96.3642323,20.256857 96.6678601,20.2816672 C97.0349454,20.3427726 97.3534459,20.3927679 97.321056,20.8038407 C97.321056,21.2926841 96.5652922,21.5482159 95.1293409,21.5482159 C94.2656108,21.5482159 94.0172884,21.3648996 93.337101,20.5705291 C93.0347955,20.1983416 92.6731085,19.676168 92.2574384,19.1206642 C91.6690223,18.3207387 90.9672416,17.3319419 90.0495284,16.2209342 C89.8120027,15.9376273 89.4341207,15.454339 89.3099596,15.454339 C89.1970857,15.454339 89.160056,15.5737034 89.1542561,15.9793756 L89.1542774,17.1358593 C89.1596292,18.4518591 89.1931855,19.5937195 89.3477477,19.8372641 C89.4970244,20.0147909 89.7008674,20.1343743 89.9253672,20.1761214 C90.2114778,20.2872222 90.508385,20.3872129 90.508385,20.7316252 C90.508385,21.2871291 89.9091723,21.5093306 88.2734835,21.5093306 C86.6377946,21.5093306 85.9684038,21.2982391 85.9684038,20.7427353 C85.9684038,20.3816578 86.265311,20.2816672 86.5568199,20.1872315 C86.7808736,20.1442261 86.9843379,20.0248649 87.1344394,19.8483742 C87.3503719,19.531737 87.3503719,17.2819465 87.3503719,14.14335 C87.3503719,9.13270554 87.3017871,6.51072753 87.0426681,6.11631982 C86.9616934,5.97744386 86.7403626,5.91633844 86.5028368,5.91633844 C86.1681414,5.87745318 85.7524713,5.82745783 85.7524713,5.36083463 C85.7524713,5.03864241 86.0115903,4.79422073 86.626998,4.5275789 C87.2639556,4.25945315 87.9346092,4.0855194 88.6189755,4.01096035 Z M110.568516,3.99985027 C111.079813,3.99985027 111.209428,4.30160788 111.225336,4.78948356 L111.22711,4.9053215 L111.22711,5.68302684 C111.201806,6.52669826 111.162267,7.90742904 111.157424,9.8389508 L111.156932,10.2326031 L111.156932,11.2047348 C111.156932,11.4602665 111.189322,11.4602665 111.22711,11.4602665 C111.345873,11.4602665 111.513221,11.23251 111.621187,11.0658588 C111.729153,10.8992077 111.858713,10.7103364 112.031459,10.510355 C112.739093,9.68546011 113.77019,9.2324809 114.838582,9.27713654 C116.965517,9.27713654 118.239519,10.4103643 118.74696,12.7268152 C118.838535,13.2590696 118.885805,13.7981454 118.888376,14.33818 L118.881918,14.7432941 L118.881918,16.4153606 C118.881918,17.209731 118.903511,18.0929821 118.952096,19.0428936 C118.971726,19.5579972 119.004741,19.8114171 119.245819,19.9993118 L119.32458,20.0539106 L119.432113,20.1058986 C119.505326,20.1368726 119.581407,20.1604118 119.659275,20.1761214 C119.907597,20.2705571 120.199106,20.3483276 120.199106,20.7316252 C120.199106,21.2871291 119.562105,21.4982205 117.937213,21.4982205 C116.312321,21.4982205 115.653727,21.2871291 115.653727,20.7316252 C115.653727,20.3705478 115.950634,20.2705571 116.236745,20.1761214 C116.462306,20.1330569 116.667468,20.0138138 116.819762,19.8372641 C116.98771,19.5656845 117.006371,18.1178083 117.008444,15.8213601 L117.008703,14.9210553 C117.008703,12.104651 116.317719,10.9936433 114.547073,10.9936433 C113.39182,11.0057539 112.311255,11.5833832 111.637382,12.549054 C111.304475,13.0450344 111.138529,13.6371857 111.161158,14.2355043 L111.178525,14.4599871 L111.178879,15.8509262 C111.181975,18.0291485 111.208424,19.5603668 111.372865,19.8372641 C111.522141,20.0147909 111.725984,20.1343743 111.950484,20.1761214 C112.236595,20.2872222 112.533502,20.3872129 112.533502,20.7316252 C112.533502,21.2871291 111.864111,21.4982205 110.223024,21.4982205 C108.581937,21.4982205 107.917944,21.2871291 107.917944,20.7316252 C107.917944,20.3705478 108.214852,20.2705571 108.500962,20.1761214 C108.725462,20.1343743 108.929305,20.0147909 109.078582,19.8372641 C109.280119,19.5417361 109.293554,17.5622167 109.29445,14.747799 L109.29441,13.7416224 C109.291815,8.98513926 109.239252,6.4892383 108.992209,6.10520974 C108.911234,5.96633379 108.689903,5.90522837 108.452377,5.90522837 C108.117682,5.8663431 107.702012,5.81634776 107.702012,5.34972455 C107.702012,5.02753234 107.966529,4.78311066 108.576538,4.51646882 C109.213699,4.24897891 109.884264,4.07506819 110.568516,3.99985027 Z M50.3989198,4.23316188 C53.7998569,4.23316188 55.8674108,5.82745783 55.8674108,8.39388547 C55.8733197,9.93899752 54.989669,11.3411154 53.6163143,11.965775 C53.3162275,12.1192775 53.0037504,12.2456668 52.6824061,12.3435176 C52.5096601,12.3935129 52.3639057,12.3935129 52.3639057,12.4879486 C52.3639057,12.5705798 52.5374952,12.6149333 52.7906465,12.661945 L52.903737,12.6823749 L53.351797,12.7657005 L53.5889322,12.8244257 C55.6866224,13.3832521 56.7968846,14.7585705 56.8229122,16.8208784 C56.8229122,19.7761587 54.6150022,21.4704453 50.766005,21.4704453 C50.0372328,21.4704453 49.3516471,21.4315601 48.747036,21.3926748 C48.2449929,21.3648996 47.7753397,21.3315694 47.3542713,21.3315694 C46.8452875,21.3315694 46.4195919,21.3560569 46.0839837,21.3630533 L45.9237183,21.3648996 L45.383887,21.3648996 C44.6659114,21.3648996 43.8453678,21.276019 43.8453678,20.5983043 C43.8453678,20.2150067 44.2718346,20.0761307 44.6497165,19.9539199 C44.8497927,19.9072554 45.0353606,19.8098682 45.1895478,19.670613 C45.464371,19.3423607 45.4893549,16.8563663 45.4916262,13.7735497 L45.4915625,12.2018554 C45.4882842,8.98170951 45.4532472,6.37774328 45.1895478,6.03854928 C45.0353606,5.89929401 44.8497927,5.80190681 44.6497165,5.75524234 C44.2718346,5.6330315 43.8453678,5.49971058 43.8453678,5.11085791 C43.8453678,4.75440963 44.1266049,4.48664907 44.5892854,4.38887333 L44.7198945,4.36648279 L44.8278608,4.36648279 C46.2895578,4.26620723 47.87341,4.24135261 49.1935324,4.23519206 L49.6754623,4.23364734 L50.3989198,4.23316188 Z M141.117569,10.9547581 C139.228159,10.9547581 138.180887,12.0268804 138.180887,13.9766988 L138.180887,13.9766988 L138.181167,17.8883345 C138.183694,18.47378 138.208958,18.9062397 138.461599,19.2262099 C139.183138,20.0585029 140.217247,20.5318995 141.301112,20.5261417 L141.301112,20.5261417 L141.301112,20.5094237 C143.525217,20.5094237 144.804617,18.8651324 144.804617,15.9987327 C144.804617,12.9323517 143.357869,10.9547581 141.117569,10.9547581 Z M64.3535588,10.5770155 C62.356183,10.5770155 60.9634182,12.3935129 60.9634182,15.021046 C60.9634182,18.1485325 62.6260986,20.5094237 64.7854238,20.5094237 C67.0041304,20.5094237 68.3321154,18.7706968 68.3321154,15.8820769 C68.3321154,12.8601362 66.6208502,10.5770155 64.3535588,10.5770155 Z M78.1138585,10.5770155 C76.1164827,10.5770155 74.7237179,12.3935129 74.7237179,15.021046 C74.7237179,18.0616579 76.2902076,20.3776716 78.3615683,20.5039929 L78.5403252,20.5094237 L78.5511218,20.5094237 C80.7914217,20.5094237 82.0978134,18.7706968 82.0870832,15.8820769 C82.0870832,12.8601362 80.3811499,10.5770155 78.1138585,10.5770155 Z M127.189922,10.5770155 C125.192546,10.5770155 123.799781,12.3935129 123.799781,15.021046 C123.799781,18.1485325 125.457063,20.5094237 127.616388,20.5094237 C129.840493,20.5094237 131.16308,18.7706968 131.16308,15.8820769 C131.16308,12.8601362 129.457213,10.5770155 127.189922,10.5770155 Z M48.4339339,13.2934291 C47.6536323,13.2934291 47.5826957,13.302611 47.576247,14.1723856 L47.5756021,14.6433034 C47.5251771,16.2288341 47.5847096,17.8160467 47.7537464,19.392861 C47.825544,19.6778345 48.7304497,20.0881435 50.1861324,20.128462 L50.420513,20.1316811 C52.8335589,20.1372362 54.3396882,18.9151278 54.3289493,16.9430892 C54.3289493,14.4044368 52.5690416,13.2934291 48.4339339,13.2934291 Z M49.5945711,5.56637104 L49.1087662,5.56668212 C48.4620051,5.57059287 47.857394,5.60081227 47.7537464,5.80523768 C47.6298199,6.04965936 47.5651626,7.25975459 47.5597745,9.39663126 L47.5594072,10.5492403 C47.5540088,10.7325565 47.5540088,10.8825426 47.5378139,11.0269736 C47.5378139,11.9324448 47.6241869,11.9324448 48.4177389,11.9324448 C51.9320406,11.9324448 53.4327716,10.9714232 53.4327716,8.74940791 C53.4327716,6.6384934 52.1425749,5.56637104 49.5945711,5.56637104 Z" id="Combined-Shape" fill="#2B0F42"></path><path d="M29.9986825,22.130556 C29.5917823,22.6431144 29.0979034,23.0795898 28.5390405,23.4109507 C28.3690822,23.5020499 28.2001237,23.5971535 28.0281659,23.6612233 C26.743481,24.1507566 25.3608202,24.1697773 23.9681618,24.1747827 L15.8951422,24.1747827 L14.4714915,24.1747827 L5.93458569,24.1747827 C5.4926941,24.1747827 5.1347819,23.8163923 5.1347819,23.3739104 L5.1347819,22.7181961 L5.1347819,21.0844165 L5.1347819,18.9711146 L5.1347819,16.8748312 L5.1347819,15.2941094 C5.1347819,14.9717583 5.08779342,14.6043581 5.25675198,14.3130408 C5.39671764,14.0727791 5.65565412,13.9206133 5.93458569,13.9206133 L22.9983997,13.9206133 C24.0621388,13.9206133 25.1428737,13.9015926 26.209612,14.0017017 C27.2953456,14.104814 28.3320913,14.503248 29.2088762,15.1519546 C29.5008046,15.3852087 29.7667394,15.6504976 29.9986825,15.942816 C30.7325025,16.8047549 31.2003877,17.8849315 31.208486,19.0171648 C31.2163838,20.1634133 30.7454993,21.2616095 29.9986825,22.130556 M5.1347819,9.37866601 L5.1347819,7.23733356 L5.1347819,5.02292151 L5.1347819,3.30404922 L5.1347819,2.64733389 C5.1347819,2.20485192 5.4926941,1.84546045 5.93458569,1.84546045 C5.93458569,1.84546045 23.9681618,1.84546045 23.9791591,1.84846372 L25.0199038,1.84846372 C26.364574,1.81442664 27.6912485,2.16180503 28.8489645,2.84955416 C29.9127036,3.56633491 30.6995106,4.6254886 31.0784176,5.85282548 C31.1923896,6.23924639 31.2733698,6.63968257 31.2685903,7.04412311 C31.2523749,8.15633458 30.7694934,9.21048282 30.0386727,10.0473944 C29.629773,10.5549473 29.1268963,10.9794096 28.5590356,11.2987575 C27.2933461,11.8954074 25.895689,12.0415666 24.5000314,12.0495753 C24.5000314,12.0495753 23.9761599,12.0495753 23.9681618,12.0505764 L5.93458569,12.0505764 C5.45270391,12.0505764 5.13078288,11.6231108 5.13178031,11.1676146 C5.13178031,10.5719658 5.1347819,9.97531592 5.1347819,9.37866601 M32.9369617,18.1161834 C32.8659791,17.6106327 32.7350112,17.1150929 32.5380595,16.6445804 C32.3541047,16.1730668 32.120162,15.7235772 31.8382312,15.3031192 C31.5433036,14.89067 31.2083857,14.5082534 30.8384765,14.1618761 C30.6185304,13.9616581 30.3785893,13.7714509 30.1386481,13.5912546 L29.7387462,13.3009384 C29.6077784,13.2008293 29.4588149,13.1107312 29.3388443,13.0106221 C29.8197264,12.7022863 30.2836126,12.3689232 30.7275037,12.0095317 C31.1004122,11.6791718 31.43533,11.3097695 31.7272584,10.9083322 C32.0161876,10.5008884 32.2601277,10.064413 32.4580792,9.60691463 C32.6210392,9.23150572 32.7580056,8.84908917 32.8339869,8.44665081 C32.9859497,7.64377628 32.9949475,6.79985704 32.8789759,5.99197705 C32.8289882,5.64559976 32.7510073,5.30322683 32.6440335,4.96986371 C32.426087,4.29713094 32.100167,3.65943633 31.6812697,3.08881477 C31.5083121,2.85355852 31.3183587,2.63031535 31.1184078,2.41908527 C30.5955361,1.87349098 29.9916842,1.40998611 29.3288468,1.04759137 C28.9009518,0.778298037 28.4400648,0.567067954 27.9591828,0.416904388 C26.7444808,0.105565261 25.4927878,-0.0325852196 24.2400951,0.00645730756 L23.2403404,0.00645730756 L7.84411726,0.00645730756 C7.84411726,0.00645730756 2.21249877,0.00645730756 0.335959108,0.00645730756 C0.159002517,0.00645730756 0.0160375883,0.149613241 0.0160375883,0.335816063 L0.0160375883,1.49808206 C0.0160375883,1.82844191 0.345956655,1.84746263 0.595895342,1.84746263 L1.70562311,1.84746263 C1.70562311,1.84746263 2.39845315,1.8504659 2.63039625,1.8504659 C3.07228785,1.8504659 3.43519883,2.20485192 3.43519883,2.64733389 C3.43419907,2.77747565 3.43319932,3.03876025 3.43519883,3.16890201 C3.43619858,3.31305903 3.43519883,3.45721606 3.43519883,3.60037199 C3.43319932,5.51245473 3.43519883,11.248703 3.43519883,11.249704 C3.43519883,11.4699439 3.34322139,11.6821751 3.18426038,11.8323387 C3.10527976,11.9074205 3.01130281,11.9654837 2.91032758,12.0025241 C2.78535824,12.0485742 2.66438791,12.0485742 2.53242029,12.0495753 C1.88657872,12.0505764 1.23573838,12.0695971 0.589896813,12.0715993 C0.484922565,12.0715993 0.354954448,12.0625895 0.254978973,12.0926222 C0.161002027,12.1206527 0.0870201754,12.1907291 0.0420312117,12.2768228 C-0.00295775194,12.3659199 0,12.456018 0,12.5531238 C0,12.7122972 0.00304077655,12.8704695 0.00504028605,13.0296428 C0.00703979554,13.1998282 -0.00495726143,13.3700136 0.00903930504,13.5381968 C0.0150378335,13.6132786 0.0260351357,13.6893615 0.0600267972,13.7564345 C0.121011837,13.8765654 0.250979954,13.9236166 0.378948562,13.9266199 L1.22574083,13.9266199 L2.46443697,13.9266199 C2.72537295,13.9266199 2.98031042,13.9596559 3.17826186,14.1478609 C3.41020496,14.3691019 3.43619858,14.6504083 3.43819809,14.9497343 C3.44119735,15.2270364 3.4401976,15.5033373 3.4401976,15.7796383 C3.43919784,16.1940897 3.43519883,16.6095423 3.43519883,17.0239937 L3.43519883,17.4014048 L3.43519883,19.2374047 L3.43519883,20.3085714 L3.43519883,22.3157578 L3.43519883,23.3739104 C3.43519883,23.8163923 3.07628687,24.1747827 2.63439527,24.1747827 L1.23773789,24.1747827 C1.07577762,24.1747827 0.752856837,24.1727805 0.591896323,24.1747827 C0.497919377,24.1757838 0.402942676,24.1737816 0.34695641,24.177786 C0.232984369,24.1857947 0.177997857,24.2028133 0.106015516,24.2528678 C0.0440307212,24.2949136 0.00803955029,24.3669921 0.00604004079,24.443075 C0.00504028605,24.4781131 0.00604004079,24.5481895 0.00604004079,24.5822265 L0.00604004079,25.694438 C0.00504028605,25.7695198 0.033033419,25.8405972 0.0860204206,25.8946561 C0.190994669,25.9767455 0.303966956,26 0.450930904,26 L8.89186024,26 L18.8714121,26 C20.9269079,26 22.9434132,25.9907608 24.9979092,26 C25.6027608,26.0027739 26.2496022,25.9767455 26.849455,25.8946561 C27.2493569,25.8395961 27.6432603,25.7434914 28.0281659,25.6233606 C28.4980506,25.462185 28.9499397,25.2539582 29.3788345,25.0036856 C30.0406722,24.6322811 30.6415248,24.1587653 31.158398,23.602159 C32.1491549,22.5329944 32.8089931,21.2015441 32.9619555,19.7419543 C33.0189416,19.2023665 33.012943,18.6537689 32.9369617,18.1161834" id="Logomark" fill="#573BA3"></path></g></g></g></svg>