<svg xmlns:xlink="http://www.w3.org/1999/xlink" xmlns="http://www.w3.org/2000/svg" width="102" height="35" viewBox="0 -8 100 48"><title>Books a Million logo</title><style type="text/css">.bam-1{fill:#002855;}</style><path class="bam-1" d="M96.6,26.2c0,1.5-1.2,2.7-2.7,2.7s-2.7-1.2-2.7-2.7s1.2-2.7,2.7-2.7S96.6,24.7,96.6,26.2 M23.2,5 c-2.1-3-6.2-3.2-8.6-3.2H0.4v26.7h14.8c1.7,0,7.2,0,9.1-3.5c1-1.7,1-4.6,0-6.4c-1.3-2.2-2.7-2.8-4.6-3.4c2.3-0.8,3.6-1.6,4.4-4.1 C24.6,9.3,24.5,6.8,23.2,5 M9.5,11.9V7.6h2.6c1.7,0,2.7,0.6,2.7,2.1c0,1.7-1,2.1-2.7,2.1H9.5V11.9z M9.5,22.7v-4.3h2.9 c1.7,0,2.7,0.6,2.7,2.1c0,1.7-1,2.2-2.7,2.2C12.4,22.7,9.5,22.7,9.5,22.7z M34.2,28.4l1.5-3.2h9.6l1.5,3.2h9.8L40.9,1.8h-0.8 L24.3,28.4H34.2z M40.5,14.7l2.3,5.1h-4.6L40.5,14.7z M95.7,21.8l3-19.9h-9.8l3,19.9H95.7z M102.2,1.8c-1.1,0-2.1,0.9-2.1,2 s0.9,2,2.1,2s2-0.9,2-2C104.3,2.7,103.4,1.8,102.2,1.8L102.2,1.8z M102.2,2.2c0.9,0,1.5,0.7,1.5,1.6s-0.6,1.6-1.5,1.6 s-1.6-0.7-1.6-1.6C100.7,2.9,101.3,2.2,102.2,2.2L102.2,2.2z M101.9,4.1h0.2c0.3,0,0.4,0.1,0.4,0.3c0.1,0.2,0.1,0.4,0.2,0.5h0.5 c0-0.1-0.1-0.2-0.1-0.5c-0.1-0.3-0.2-0.4-0.4-0.5l0,0c0.2-0.1,0.4-0.2,0.4-0.5c0-0.2-0.1-0.3-0.2-0.4c-0.1-0.1-0.3-0.2-0.7-0.2 c-0.3,0-0.6,0-0.8,0.1v2h0.5V4.1z M101.9,3.2c0,0,0.1,0,0.3,0c0.3,0,0.4,0.1,0.4,0.3s-0.2,0.3-0.5,0.3h-0.2 C101.9,3.8,101.9,3.2,101.9,3.2z M78,18.8l0.5,9.6h8.7L86.4,1.8h-0.7L72.6,12.2l-13-10.4h-0.7l-0.8,26.6h8.7l0.5-9.6l5.4,4.3 L78,18.8z" fill="#002855"></path><path class="bam-1" d="M6.8,32.6c0.4,0.5,0.4,1.2,0.2,1.7c-0.2,0.7-0.6,0.9-1.3,1.2c0.5,0.2,0.9,0.3,1.3,1c0.3,0.5,0.3,1.3,0,1.8 c-0.5,1-2.1,1-2.6,1h-4v-7.5h4C5.1,31.7,6.2,31.7,6.8,32.6z M2.9,34.5h0.7c0.5,0,0.8-0.1,0.8-0.6c0-0.4-0.3-0.6-0.8-0.6H2.9V34.5z M2.9,37.6h0.8c0.5,0,0.8-0.1,0.8-0.6c0-0.4-0.3-0.6-0.8-0.6H2.9V37.6z" fill="#002855"></path><path class="bam-1" d="M7.8,35.5c0-2.2,1.8-4,4.2-4s4.2,1.8,4.2,4s-1.8,4-4.2,4C9.7,39.5,7.8,37.7,7.8,35.5z M12,37.1 c0.9,0,1.5-0.7,1.5-1.6c0-0.9-0.7-1.6-1.5-1.6c-0.9,0-1.6,0.7-1.6,1.6C10.5,36.3,11.1,37.1,12,37.1z" fill="#002855"></path><path class="bam-1" d="M16.8,35.5c0-2.2,1.8-4,4.2-4s4.2,1.8,4.2,4s-1.8,4-4.2,4S16.8,37.7,16.8,35.5z M20.9,37.1 c0.9,0,1.5-0.7,1.5-1.6c0-0.9-0.7-1.6-1.5-1.6c-0.9,0-1.6,0.7-1.6,1.6C19.4,36.3,20,37.1,20.9,37.1z" fill="#002855"></path><path class="bam-1" d="M41.7,36.7c0.6,0,1.1-0.5,1.1-1.1s-0.5-1.1-1.1-1.1c-0.7,0-1.1,0.5-1.1,1.1C40.6,36.2,41,36.7,41.7,36.7z" fill="#002855"></path><path class="bam-1" d="M52.3,36.7c0.6,0,1.1-0.5,1.1-1.1s-0.5-1.1-1.1-1.1c-0.7,0-1.1,0.5-1.1,1.1C51.1,36.2,51.6,36.7,52.3,36.7z" fill="#002855"></path><path class="bam-1" d="M28.5,31.7v3.1l2-3.1h2.8L31,35.1l2.6,4.1h-3.1l-2-3.2v3.2h-2.6v-7.5C25.9,31.7,28.5,31.7,28.5,31.7z" fill="#002855"></path><path class="bam-1" d="M37.8,33.9c-0.2-0.5-0.3-0.7-0.8-0.7c-0.2,0-0.6,0-0.8,0.2c-0.1,0.2-0.1,0.3-0.1,0.4c0.2,0.4,0.8,0.4,1.2,0.4 c0.7,0,1.7,0.2,2.3,1.2c0.4,0.7,0.4,1.7,0,2.4c-0.6,1.1-1.6,1.5-2.5,1.6c-0.7,0.1-2.2,0-3-0.9c-0.2-0.2-0.3-0.4-0.5-0.8l1.8-0.7 c0.3,0.5,0.6,0.8,1.1,0.8c0.2,0,0.6-0.1,0.7-0.3c0.1-0.1,0.1-0.3,0-0.5c-0.2-0.3-0.6-0.3-1.1-0.3c-0.6,0-1.7-0.3-2.2-1.2 c-0.4-0.7-0.4-1.6,0-2.4c0.5-1,1.4-1.3,2.2-1.4c0.6-0.1,2.1-0.1,2.9,0.7c0.2,0.3,0.4,0.6,0.5,0.9L37.8,33.9z" fill="#002855"></path><path class="bam-1" d="M45.1,39.2h-2.8l4.5-7.7H47l4.5,7.7h-2.8l-0.4-0.9h-2.8L45.1,39.2z M46.9,35.2l-0.7,1.5h1.3L46.9,35.2z" fill="#002855"></path><path class="bam-1" d="M54.4,31.6l3.6,3l3.8-3H62l0.2,7.6h-2.5l-0.1-2.8L58,37.7l-1.7-1.3l-0.1,2.8h-2.3l0.3-7.6H54.4z" fill="#002855"></path><path class="bam-1" d="M65.9,31.7v7.5h-2.6v-7.5H65.9z" fill="#002855"></path><path class="bam-1" d="M69.9,31.7v5.8h2.3v1.7h-4.8v-7.5H69.9z" fill="#002855"></path><path class="bam-1" d="M75.8,31.7v5.8h2.3v1.7h-4.8v-7.5H75.8z" fill="#002855"></path><path class="bam-1" d="M81.5,31.7v7.5h-2.6v-7.5H81.5z" fill="#002855"></path><path class="bam-1" d="M82.1,35.5c0-2.2,1.8-4,4.2-4c2.4,0,4.2,1.8,4.2,4s-1.8,4-4.2,4S82.1,37.7,82.1,35.5z M86.3,37.1 c0.9,0,1.5-0.7,1.5-1.6c0-0.9-0.7-1.6-1.5-1.6c-0.9,0-1.6,0.7-1.6,1.6C84.7,36.3,85.4,37.1,86.3,37.1z" fill="#002855"></path><path class="bam-1" d="M91.3,31.6l4.8,3v-2.9h2.6v7.7h-0.2l-4.9-3v2.8H91v-7.6C91,31.6,91.3,31.6,91.3,31.6z" fill="#002855"></path></svg>