<svg xmlns:xlink="http://www.w3.org/1999/xlink" xmlns="http://www.w3.org/2000/svg" width="102" height="35" viewBox="5 5 145 45"><title>Google Play logo</title><style>.g_text{fill:#333333;}</style><path fill="none" d="M160.7-4.4v60"></path><path class="g_text1" d="M56.9 21c0 .8-.2 1.5-.7 2-.6.6-1.3.9-2.2.9s-1.6-.3-2.2-.9c-.6-.6-.9-1.3-.9-2.2 0-.9.3-1.6.9-2.2.6-.6 1.3-.9 2.2-.9.4 0 .8.1 1.2.3.4.2.7.4.9.7l-.5.5c-.4-.5-.9-.7-1.6-.7-.6 0-1.2.2-1.6.7-.5.4-.7 1-.7 1.7s.2 1.3.7 1.7c.5.4 1 .7 1.6.7.7 0 1.2-.2 1.7-.7.3-.3.5-.7.5-1.2H54v-.7h2.9v.3zM61.5 18.5h-2.7v1.9h2.5v.7h-2.5V23h2.7v.7H58v-6h3.5v.8zM64.8 23.8H64v-5.3h-1.7v-.7h4.1v.7h-1.7l.1 5.3zM69.4 23.8v-6h.8v6h-.8zM73.6 23.8h-.8v-5.3h-1.7v-.7h4.1v.7h-1.7l.1 5.3zM83.1 23c-.6.6-1.3.9-2.2.9-.9 0-1.6-.3-2.2-.9s-.9-1.3-.9-2.2.3-1.6.9-2.2 1.3-.9 2.2-.9c.9 0 1.6.3 2.2.9s.9 1.3.9 2.2c0 .8-.3 1.6-.9 2.2zm-3.8-.5c.4.4 1 .7 1.6.7s1.2-.2 1.6-.7c.4-.4.7-1 .7-1.7s-.2-1.3-.7-1.8c-.4-.4-1-.7-1.6-.7s-1.2.2-1.6.7c-.4.4-.7 1-.7 1.7s.2 1.3.7 1.8zM85.1 23.8v-6h.9l2.9 4.7v-4.7h.8v6h-.8l-3.1-4.9v4.9h-.7zM77.6 32.5c-2.4 0-4.3 1.8-4.3 4.3 0 2.4 1.9 4.3 4.3 4.3s4.3-1.8 4.3-4.3-1.9-4.3-4.3-4.3zm0 6.8c-1.3 0-2.4-1.1-2.4-2.6s1.1-2.6 2.4-2.6 2.4 1 2.4 2.6-1.1 2.6-2.4 2.6zm-9.3-6.8c-2.4 0-4.3 1.8-4.3 4.3 0 2.4 1.9 4.3 4.3 4.3s4.3-1.8 4.3-4.3-1.9-4.3-4.3-4.3zm0 6.8c-1.3 0-2.4-1.1-2.4-2.6s1.1-2.6 2.4-2.6 2.4 1 2.4 2.6-1.1 2.6-2.4 2.6zm-11.1-5.5v1.8h4.3c-.1 1-.5 1.8-1 2.3-.6.6-1.6 1.3-3.3 1.3-2.7 0-4.7-2.1-4.7-4.8s2.1-4.8 4.7-4.8c1.4 0 2.5.6 3.3 1.3l1.3-1.3c-1.1-1-2.5-1.8-4.5-1.8-3.6 0-6.7 3-6.7 6.6s3.1 6.6 6.7 6.6c2 0 3.4-.6 4.6-1.9 1.2-1.2 1.6-2.9 1.6-4.2 0-.4 0-.8-.1-1.1h-6.2zm45.3 1.4c-.4-1-1.4-2.7-3.6-2.7s-4 1.7-4 4.3c0 2.4 1.8 4.3 4.2 4.3 1.9 0 3.1-1.2 3.5-1.9l-1.4-1c-.5.7-1.1 1.2-2.1 1.2s-1.6-.4-2.1-1.3l5.7-2.4-.2-.5zm-5.8 1.4c0-1.6 1.3-2.5 2.2-2.5.7 0 1.4.4 1.6.9l-3.8 1.6zm-4.6 4.2H94V28.2h-1.9v12.6zM89 33.5c-.5-.5-1.3-1-2.3-1-2.1 0-4.1 1.9-4.1 4.3s1.9 4.2 4.1 4.2c1 0 1.8-.5 2.2-1h.1v.6c0 1.6-.9 2.5-2.3 2.5-1.1 0-1.9-.8-2.1-1.5l-1.6.7c.5 1.1 1.7 2.5 3.8 2.5 2.2 0 4-1.3 4-4.4v-7.6H89v.7zm-2.1 5.8c-1.3 0-2.4-1.1-2.4-2.6s1.1-2.6 2.4-2.6 2.3 1.1 2.3 2.6c0 1.6-1 2.6-2.3 2.6zm24.4-11.1h-4.5v12.5h1.9V36h2.6c2.1 0 4.1-1.5 4.1-3.9s-2-3.9-4.1-3.9zm0 6.1h-2.7V30h2.7c1.4 0 2.2 1.2 2.2 2.1 0 1-.8 2.2-2.2 2.2zm11.6-1.8c-1.4 0-2.8.6-3.3 1.9l1.7.7c.4-.7 1-.9 1.7-.9 1 0 1.9.6 2 1.6v.1c-.3-.2-1.1-.5-1.9-.5-1.8 0-3.6 1-3.6 2.8 0 1.7 1.5 2.8 3.1 2.8 1.3 0 1.9-.6 2.4-1.2h.1v1h1.8V36c-.2-2.3-1.9-3.5-4-3.5zm-.3 6.8c-.6 0-1.5-.3-1.5-1.1 0-1 1.1-1.3 2-1.3.8 0 1.2.2 1.7.4-.1 1.2-1.1 2-2.2 2zm10.6-6.5l-2.1 5.4h-.1l-2.2-5.4h-2l3.3 7.6-1.9 4.2h1.9l5.1-11.8h-2zm-16.8 8h1.9V28.2h-1.9v12.6z"></path><g><linearGradient id="SVGID_1_" gradientUnits="userSpaceOnUse" x1="31.286" y1="-1229.464" x2="14.503" y2="-1246.247" gradientTransform="matrix(1 0 0 -1 0 -1210)"><stop offset="0" stop-color="#00e1ff"></stop><stop offset="1" stop-color="#00e3ff"></stop></linearGradient><path fill="#33CCFF" d="M19.9 18.3c-.3.3-.5.8-.5 1.4v22.1c0 .6.2 1.1.5 1.4l.1.1 12.4-12.4v-.2L19.9 18.3z"></path><path fill="#FFCC00" d="M36.5 35l-4.1-4.1v-.2l4.1-4.1 5 2.9c1.4.8 1.4 2.1 0 2.9l-5 2.6z"></path><linearGradient id="SVGID_2_" gradientUnits="userSpaceOnUse" x1="34.306" y1="-1243.044" x2="11.548" y2="-1265.802" gradientTransform="matrix(1 0 0 -1 0 -1210)"><stop offset="0" stop-color="#ff3a44"></stop><stop offset="1" stop-color="#c31162"></stop></linearGradient><path fill="#CC3333" d="M36.6 35l-4.2-4.2-12.5 12.4c.5.5 1.2.5 2.1.1L36.6 35"></path><linearGradient id="SVGID_3_" gradientUnits="userSpaceOnUse" x1="16.727" y1="-1220.978" x2="26.89" y2="-1231.14" gradientTransform="matrix(1 0 0 -1 0 -1210)"><stop offset="0" stop-color="#06e775"></stop><stop offset="1" stop-color="#00f076"></stop></linearGradient><path fill="#66FF99" d="M36.5 26.6L22 18.2c-.9-.5-1.6-.4-2.1.1l12.5 12.5 4.1-4.2z"></path></g></svg>