<svg xmlns:xlink="http://www.w3.org/1999/xlink" xmlns="http://www.w3.org/2000/svg" width="102" height="35" viewBox="26 -2 100 49"><title>IndieBound logo</title><style>.st0{fill:#ee2d24}</style><path class="st0" d="M23.3 30.8c.1.2-.3.3-.1.5.2-.1.1-.4.4-.4-.1-.2.1-.2.1-.4-.2.2-.2.2-.4.3M24.4 29.4c-.1 0-.2.1-.1.2.2.1.2-.1.1-.2M23.1 32.1c.1.1.1.1.1 0 0 0 0-.1-.1 0" fill="#EE2D24"></path><path class="st0" d="M23.6 30.4c-.1.1-.1.2.1.2s.2-.1.2-.2c-.1-.1-.1 0-.3 0M25.7 23.2c.3 0 0-.2 0 0M23.9 30.2c.1 0 .2-.1.1-.2-.1 0-.1.1-.1.2" fill="#EE2D24"></path><path class="st0" d="M27.8 28c.1-.2.1-.4.2-.5 0-.1-.2 0-.1-.2h.2c.1-.2.1-.4.2-.5 0-.1-.1-.1-.1-.2l.2-.2v-.2c.2-.4.4-.9.4-1.4-.1-.1.1-.2-.1-.4.1-.1.3-.4.1-.6.1-.1 0-.3.1-.4-.1-.4-.3-.8-.4-1.2-.1 0-.2-.1-.2-.1.1-.1.1-.1.1-.2-.2-.1-.6-.1-.8-.2-.2.4-.6.3-.9.3 0 .3-.4.3-.4.5 0-.1-.1-.1-.1-.1 0 .1 0 .1-.1.1s-.1-.1-.2-.1c-.1.2-.2.2-.2.4.2.1.4-.2.7-.3.1-.1.1-.1.1-.2.4-.1.5-.4.9-.4 1.1-.2 1.2 1.1 1 2-.1-.3-.5-.3-.7-.1-.1 0-.2-.1-.3-.1-.1.2-.4.2-.5.4-.3.1-.4.4-.7.5H26c-.2.3-.5.5-.7.8h-.1c0 .2-.2.3-.3.4-.1 0-.1 0-.2-.1.1-.1.1-.4.2-.5 0-.1-.1-.1-.1-.2.1-.2.2-.4.1-.5-.3 0-.2.3-.5.4 0 .1.2.1.2.2-.1 0-.1-.1-.2 0 0 .1 0 .3-.2.3-.1 0-.1-.1-.1-.1 0-.2.2-.3.1-.6.3-.4.4-1 .7-1.5.2-.1.2-.3.4-.4 0-.1-.1-.1-.1-.2.1-.4.4-.7.5-1.1.1 0 .1-.1.2-.1 0-.1-.1-.1 0-.2.3-.2.5-.6.4-1-.3 0-.4.2-.6.2 0-.1.1-.1 0-.2.1-.1.2-.3.2-.5.3-.7.5-1.4.8-2 0-.4.2-.7.4-1 0-.3.2-.4.3-.7-.1-.2.1-.4.2-.4v-.2c.2-.2.2-.8.4-1 0-.4.2-.5.3-.7v-.2l.2-.2c0-.5.4-.8.3-1.4 0 0-.1 0-.1-.1-.4-.1-.8-.1-1 .1-.1.1-.1.2-.2.3-.2.1-.4.2-.5.4 0 .1 0 .1-.1.1-.1.1-.2.1-.2.1-.1.3-.2.5-.4.7 0 .4-.4.5-.6.7v.1c-.4.4-.7.8-1 1.2-.1.2-.2.3-.2.5-.2.1-.2.3-.3.4-.1.2-.5.2-.6.4-.2.1-.3.1-.5.2 0 .1-.1.1-.1.2-.1.1-.2.1-.2.2-.4.1-.3.5-.7.6-.2.4-.5.7-.9.9 0 .1-.1.1 0 .2-.4.4-.5.9-.9 1.3-.1.5-.5.8-.8 1.1-.1.5-.5.9-.8 1.4v.2c-.1.2-.3.2-.3.5-.1.1-.2.2-.2.5-.2.2-.4.6-.5 1-.2.1-.2.4-.3.5 0 .1.1.1 0 .2-.2-.1-.2-.4-.6-.4-.1 0-.1.1-.2.1s-.1-.1-.2-.1c-.2.2-.1.6-.1.9v.9c0 .2.1.4 0 .6-.5-.8-.9-1.6-1.4-2.3 0-.5-.5-.9-.5-1.4-.1-.1-.2.1-.2 0s.1-.1.1-.2c-.1-.1-.1-.2-.1-.3-.1-.1-.2-.2-.3-.4 0-.1.1-.1.1-.2-.2-.2-.2-.4-.4-.5 0-.2-.1-.6-.3-.7 0-.1.1-.1 0-.2.4.4.3.4.3.4v-.2c-.4-.4-.5-1.1-.9-1.5 0-.1.1-.1 0-.1-.2-.2-.3-.5-.4-.8.2.1.1.1 0 0-.2-.6-.6-.9-.9-1.5-.1 0-.2-.1-.3-.2-.1-.1-.1.1-.2.1v-.1c-.1-.1-.2-.1-.4-.1-.1.1-.3.2-.5.2 0 .2-.3.3-.3.5.1.1.1 0 .2 0-.1.1 0 .2-.1.3 0-.1-.1-.1-.1-.1-.1.1 0 .2.1.2-.1.1.1.4-.2.4 0 .2-.2.3-.1.5.1.1.1.1.2.1-.1.1-.2.1-.2.2.1.1.1.1.1.2s-.1.1-.1.1c-.1.2.1.6-.1.8.2.2.3.7.2.9.2.2-.1.5.2.6-.2.1-.1.4-.2.5.4.4.2 1.3.5 1.8-.1.2.1.5.1.7-.2-.1-.3-.2-.4-.4-.1 0-.2.1-.2.1 0-.1.1-.1.1-.2-.3-.6-.9-.8-1.2-1.4-.2-.1-.3-.2-.4-.5-.1 0-.2-.1-.3-.1-.2.1-.2 0-.3 0-.4.5.4.8.4 1.3.1 0 .1 0 .1.1.2.5.5.9.8 1.4.1 0 .2.1.2.1.1.3.3.4.3.7.2.2.3.7.6.8.1.4.4.5.5.9.2.1.3.4.4.6 0 .4.4.5.4.9-.1-.1-.3-.2-.4-.4-.3.1-.4-.2-.6-.3 0-.5-.6-.3-.9-.2.1.1.1.2.2.2s0-.1.1-.2c.2.1.3.1.5.2.4.1.8.5 1.1.7h.2s0 .1.1.1c.1.1.4.1.2.3.2.2.4.5.5.8-.4-.1-.5-.4-.7-.6-.1.1.1.1-.1.2 0-.2-.2-.2-.2-.4H11c0-.1.1-.1.1-.1-.2-.1-.3-.4-.6-.4 0-.1-.1-.1-.1-.2-.1.1-.3 0-.3.1-.1 0-.1-.1-.1-.2l.1-.1c-.2 0-.2-.2-.3-.4-.2.1-.2.1-.4.1-.1.1.1.1 0 .2-.1-.1-.1-.2-.1-.4h-.2c-.1.3-.1.4-.2.4.1.2.4.2.5.4.2.1.4.2.5.4-.1.2.1.2.2.3 0 .1-.1.1 0 .1.1.1.1.2.1.4l.2.2v.1c.2.1.3.6.6.5-.1-.2-.4-.3-.3-.6-.1-.1-.2-.1-.2-.1 0-.1.2 0 .2-.2-.2 0-.3-.1-.4-.2.4-.1.7.2.9.4.1 0 .2-.1.2 0s0 .1.1.2c.1 0 .2.1.3.1.1.1.1.2.1.4 0 .1.1.1.2.1.1.2.3.4.5.5-.1.1 0 .1 0 .1.2.1.2.2.4.4.2.5.7.7.9 1.2.4.4.7.8 1 1.2 0 .1.1.2.1.3-.4-.2-.9-.4-1.2-.7-.1-.3-.4-.4-.5-.5-.1-.2-.4-.5-.5-.6-.2-.6-.7-.8-.9-1.3-.1-.1-.2-.1-.2-.2s.1-.1.1-.1c0-.1-.1.1-.1-.1.1-.2-.1-.3-.2-.2 0 .1-.1.2-.2.3 0 .3.2.2.4.4.1.1.1.1.1.2.2.3.5.5.5.7.1 0 .2.1.2.2-.5-.3-.9-.8-1.4-1.1-.4-.4-.7-.8-1.2-1.1-.2-.5-.7-.5-.8-1-.3-.3-.4-.3-.4-.3-.2-.3-.5-.6-.8-.8 0-.2-.1-.3-.2-.3-.1.1 0 .2-.1.2-.1-.1 0-.2 0-.4.2 0 .3 0 .4.1.2.2.6.2.9.4.1-.2 0-.4-.1-.5-.2.1-.2-.1-.4-.2-.2 0-.5-.2-.8-.1-.1-.1-.2-.1-.4-.2-.2.1-.4.1-.7.2-.1.1 0 .2 0 .2.2.1.2.2.5.3.1.1-.1.1.1.2 0 .1.1 0 .2.1-.1.2.2.2.3.3.1.1 0 .1 0 .2.1.1.2.3.3.3H8c0-.1-.1-.1-.1-.2.2.1.4.3.4.6.1.1.2.1.4.1 0 .1-.1.1-.1.2.2.1.2.4.5.2.1.1.1.2.2.3-.1.2.1.4.4.2.2.1.3.3.5.4v.2c.1.1.2 0 .2.1s-.1.2-.1.2c.1.1.2-.1.2 0-.1.2.2.4.4.2.2.1.2.2.1.4.1.2.3.1.3.3.2.1.5.1.5.4h.2c.1.1.2.2.2.3.1 0 .1-.1.2-.1.1.1-.1.2.1.3.1 0 .1-.1.2-.1-.1.3.2.4.4.4.4.5.9.8 1.4 1.2.1 0 .1.1.1.1.6.5 1.3.9 1.9 1.4v.2c.1.1.2.2.2.4h.6c.2 0 .4-.2.4-.4v-3.1c0-.2-.2-.4-.4-.4h-.8c-.2 0-.4-.2-.4-.4v-1.1c0-.2.2-.4.4-.4h3c.2 0 .4.2.4.4v5c0 .2.2.4.4.4h.7c.2 0 .4.2.4.4v.1c.1-.1.2-.2.2-.4.1 0 .1-.1.1-.1.5-.5.9-1.1 1.4-1.7.1 0 .1-.1.2-.1.1-.2.2-.4.3-.7.5-.1.4-.6.7-.8.1-.4.3-.6.5-.9 0-.2.2-.5.4-.6-.1-.3.4-.4.2-.8.1-.1.2-.2.3-.2 0-.2.1-.4.2-.5-.1-.2.1-.2.2-.4s.2-.4.2-.7c.5-.2.4-.8.8-1 .1-.4.2-.7.4-.9 0-.1-.1-.1-.1-.2.1-.2.3-.5.4-.7 0-.1-.1-.1-.1-.2 0 .6.1.7.1.7m1-15.3c-.1 0-.2-.1-.2-.2.1 0 .2 0 .2.2m-18.6 18c0-.1-.1-.1-.1-.1h.2c.1.1 0 .1-.1.1m-1.3.4c0-.1 0-.1.1-.1l-.1.1zm6-5.3c0 .1-.1.1-.1 0h.1m-.1-.2c-.1-.1-.2 0-.2-.1s.2 0 .2.1m-4.7-3.8c-.1-.2.1-.6-.1-.7.1-.1 0-.2 0-.4 0-.1-.1-.1-.1-.2.1 0 .2-.3 0-.2.1-.1.1-.4 0-.5 0-.1.1-.1.1-.2-.2-.4.1-.6-.1-1 .1-.1.1-.2.2-.3 0-.1 0-.1-.1-.1.2-.4.6-.1.9-.1.1.2.3.3.4.6.4.3.6.9 1 1.2v.2c.1.1.4.3.3.5.5.4.5 1 .9 1.4 0 .1-.1.1-.1.2s.1.1.1.2c.2.7.7 1.3.9 2.1-.2 0-.2-.5-.5-.4.1-.4-.1-.6-.4-.6-.1-.1 0-.1 0-.2-.1-.2-.3-.4-.5-.4-.1-.2-.2-.3-.4-.3-.1-.1 0-.1 0-.1-.1-.1-.2-.2-.4-.2-.1-.2-.2-.2-.4-.3-.1-.2-.3-.3-.5-.4-.1 0-.1.1-.1.1-.3-.1-.8 0-1.1.1m2.4 1.7c.1-.2-.1-.3-.2-.4 0-.1.1-.2.1-.3.1 0 .2.1.4.1.1.2.3.3.4.5.2.2.2.5.5.6.2.3.4.6.7.9 0 .1.1.1.1.1v.2c-.4-.1-.4-.5-.7-.5-.1-.3-.4-.4-.5-.5-.2-.2-.4-.2-.6-.2.1 0 0-.1.1-.1-.1-.3-.2-.3-.3-.4m-.1 1.2l.1.1c-.1.1-.2 0-.1-.1m-.3-.6c.2.1.2.4.3.6-.1-.3-.4-.4-.3-.6m-1.2 4c-.1-.1-.1-.1-.2-.1-.1-.4-.4-.4-.4-.8-.3-.2-.3-.7-.6-.9h-.2c0-.2-.1-.5-.2-.5.1-.2-.1-.4-.3-.4-.1-.1.1-.1 0-.2.1-.1.1.1.2 0 .1.2.2.4.4.4.2.4.6.8.9 1.1 0 .5.4 1.1.4 1.5l-.1-.1h.1zm.1.3c.1 0 .1.1.1.1-.1 0-.1 0-.1-.1m.3.8c-.1-.1 0-.1.1-.1 0 .1 0 .1-.1.1m.1-2.1c0-.2-.2-.3-.4-.5.1-.1-.1-.2 0-.3-.1-.1-.2-.4-.1-.5-.2-.2-.3-.7-.2-1-.1-.4-.2-.7-.3-1.1-.1-.2-.2-.4-.1-.7 0-.1-.1-.2-.1-.3.1-.2-.1-.4-.1-.5.1-.4.7-.3 1-.2 0 .1.1.1.1.2 0 .2.2.5.1.8-.1.1-.3.2-.4.4.3 1 .7 1.8 1.1 2.7.1.1.2.1.4.2 0 .1-.1.2-.1.2.3.5.5.9.7 1.4-.1.2.1.5.2.7 0 .4.2.4.2.7-.1-.1-.2-.1-.2-.4-.1-.2-.3-.1-.4-.2-.1-.1-.1-.4-.2-.3 0-.1.1-.1.1-.2-.1-.1-.2-.1-.2-.1.1-.2-.2-.2-.3-.3-.1-.1 0-.1 0-.2-.1-.1-.1-.1-.2-.1-.2-.2-.4-.3-.6-.4m2.4 3.1c-.1-.2-.4-.4-.5-.7.2.1.4.5.5.7m-.6-.8c-.1 0-.1-.1-.1-.1 0-.1.1 0 .1.1M12 31.7c0-.1 0-.1.1-.1s.1.1-.1.1m.3.3c-.1 0 0-.2-.1-.2.1-.1.3.2.1.2m.6.7c.1 0 .2 0 .2.1-.1 0-.2.1-.2-.1m1.3.2c-.1 0-.2-.1-.2-.2.1 0 .1.1.2.1v.1m0 .3c.2 0 .3-.2.4-.3-.1-.1-.2.1-.2 0s.1-.1.1-.2c-.1-.1-.2-.4-.5-.3.1-.3-.2-.7-.4-.8 0-.1.1-.1 0-.2s-.2 0-.3-.1c-.1-.1.1-.2-.1-.2 0-.2-.1-.4-.2-.4-.4-.8-.8-1.5-1.1-2.4.3.1.4.5.7.7.2.7.7 1 1 1.5.1.4.3.6.5.8.2.6.7.9.8 1.5.1.1.2.3.1.5.2.1.4.5.4.7-.1.1-.1-.1-.2-.1-.1.1-.1.2 0 .2.1.1.1-.1.2-.1.1.2.3.5.4.8-.7-.4-1.3-.9-1.6-1.6m.3-2.6c.7.4.9 1.3 1.2 2.1-.4-.6-.8-1.3-1.2-2.1m2 6.3c.1.2.1.2.1.3-.3-.1-.5-.3-.7-.5.2-.1.3.3.6.2m-.3-.8c-.1 0-.2-.1-.3-.3.2 0 .3.1.3.3m-.6-5.2c-.2-.2-.4-.5-.6-.8-.1-.1-.1-.2-.1-.4.4.4.7 1 1.1 1.4 0 .1.1.1.1.2.1.1.2.2.3.5-.4-.2-.6-.5-.8-.9m1.1.5c-.2-.2-.4-.4-.5-.7-.3-.2-.2-.4-.5-.5-.3-.8-.9-1.1-1.2-1.9 0-.1-.1-.1-.1-.1-.1-.6-.2-1-.6-1.4.2-.4-.4-.5-.2-.8-.1-.1-.2-.2-.2-.4l-.2-.2c0-.3-.2-.5-.2-.7.4.2.6.5.9.8v.1c.8.7 1.2 1.7 1.8 2.5.1.3.2.4.4.6v.2c.2.2.1.4.3.7 0 .5.4 1.1.2 1.5.1.1.1.2.1.3m8.6-4.9c.4-.2.7-.6.9-.9.5-.4.9-.8 1.6-.9 0 .1 0 .1.1.1-.1.3-.4.5-.5.8-.3.4-.7.8-.9 1.4-.1 0-.1.1-.1.1v.2c-.4.3-.5.9-.8 1.2-.1 0-.1-.1-.2-.1-.1.1-.1.2-.2.1-.2.3-.5.5-.7.8 0 .1.1.1.1.1.2-.1.3-.2.5-.3-.4.9-.9 1.8-1.4 2.7-.1.1-.1.2-.2.3-.1.1-.1.1-.2.1 0 .2-.1.4-.2.5 0-.1-.1 0-.1-.1s.2-.1.2-.2-.1-.1-.1-.1c-.2.2-.2.5-.5.7 0-.1.2-.2.1-.4.2-.1.2-.4.4-.6.1-.1.1.1.2.1.1-.1.2-.1.2-.2s-.1-.1-.1-.1c-.1 0-.1.1-.2.1-.1-.1.1-.2 0-.3-.1-.1-.1.1-.2.1 0-.2.1-.3.1-.5 0-.1-.1-.1-.2-.1 0-.1.1-.1.1-.1.1-.1.2-.2.1-.5.2-.2.2-.5.2-.7.3-.4.4-1 .7-1.5.1-.1.2-.2.2-.4.3-.5.9-.8 1.1-1.4m-2 2.6c0-.1 0-.1.1-.1v.1h-.1m1.4-3.3h.2c-.1.2-.2.3-.4.5 0 .1.1.1.1.1-.2.3-.4.5-.5.9-.1 0-.1-.1-.1-.1.1-.1.1-.4 0-.5.1 0 .1 0 .2-.1.1-.3.4-.5.5-.8m1.1-9.8v-.1c.1 0 .1-.1.2-.2 0-.1-.1-.1-.1-.2.1 0 .1.1.2 0s.1-.1 0-.2c.2-.1.2-.4.5-.5 0-.1.1-.1 0-.2.2-.1.3-.2.3-.5.2-.1.2-.2.3-.3 0-.1-.1-.2-.1-.2.1-.1.1 0 .2-.1s.1-.1.1-.2c.1-.1.2-.2.2-.3.2-.1.4-.3.5-.5.2 0 .3-.2.5-.1-.1.2-.2.4-.1.6-.2.2-.4.4-.2.7-.3.4-.4.8-.6 1.2 0 .1.1.1.1.1-.2.1-.2.5-.2.7-.2.2-.3.5-.4.8-.1.1-.1.1-.1.2 0 .3-.1.3-.1.3-.1.1-.1.3-.1.4-.1.2-.2.2-.2.3-.1.1-.1.2-.1.4-.1.3-.3.7-.4 1.1l-.2.2c-.1.8-.6 1.1-.6 1.9-.4.4-.3 1-.8 1.3 0 .1.1.1.1.2h-.1c-.2.4-.6.6-.8 1-.1.1-.2.1-.3.1 0 .3-.2.5-.4.6 0-.1.1-.2.2-.2-.1-.4.2-.4.2-.8.1-.1.2-.2.3-.2 0-.3.2-.5.1-.8h.1c.1-.2.4-.4.4-.7.1 0 .1-.1.1-.1-.1-.4.4-.7.3-1 .4-.2.1-.8.5-1-.1-.5.2-.6.2-1 .1-.1.2-.3.2-.5s-.1-.4-.1-.6c0-.1.1-.2.1-.4s-.3-.2-.3-.5c-.1-.1-.2-.1-.3-.1.3-.1.4-.4.7-.6m-3.3 10.2c0-.2.1-.4.2-.5.1-.4.4-.7.6-.9.1 0 .1 0 .1.1-.1.4-.5.5-.5.9-.1 0-.2.2-.4.4m0 0c0 .1-.1.2-.1.2 0-.1.1-.2.1-.2m-3.9.4c0-.5.5-.7.4-1.2.4-.4.4-1 .8-1.4.2-.4.4-.8.5-1.2.3-.2.4-.7.7-1 .5-.9 1.1-1.7 1.7-2.5.1 0 .1-.1.2-.1.3-.5.8-.9 1.2-1.4.1 0 0 .1.1.1-.4.2-.4.7-.7.9v.2c-.2.2-.4.4-.4.7-.1 0-.2.1-.2.1-.1.4-.5.6-.5 1.1-.2.1-.4.2-.3.6-.2.1-.1.4-.4.4v.2c-.4.4-.6.9-.8 1.4.1.2.1.5 0 .7-.1 0-.1-.1-.2-.1l-.1.1c.4.5-.5.5-.4 1 0 .1-.1.1-.2.1 0 .1.1.1.1.1-.2.1-.2.4-.2.7-.2.1-.4.2-.3.5-.1 0-.1-.1-.1-.1-.1.1.1.2.1.3-.1 0-.1.1-.2.1v.4c-.1.1-.2.1-.3.2 0 .1.1.1.1.1-.1.1-.1.3-.3.3.1-.4-.2-.6-.3-.9-.1-.2-.1-.4 0-.4m2.6-3.5c0 .1-.2.1-.1 0h.1m-2.8 4.4v-.1c.1-.1.1.1 0 .1m-.7-.5c.1.1-.1.2-.1.4-.1-.1-.1-.1-.1-.2s0-.3.2-.2m1.7 4.3c-.2.2-.6.4-.9.4-.4 0-.7-.1-.9-.4-.3-.3-.4-.6-.4-.9s.1-.7.4-.9c.2-.2.6-.4.9-.4.4 0 .7.1.9.4.2.2.4.6.4.9s-.1.6-.4.9m.6-1.9c.1-.1.2-.3.1-.4.2-.2.1-.4.2-.6.1-.1.2-.2.2-.3.1-.2.1-.3.1-.5.3-.5.1-.5.4-1v.1c0-.1.2-.1.1-.3-.1-.1-.1 0-.1 0 0-.1.1-.2.1-.2.1 0 0 .1.1.1s.1-.1.2-.1c0 .1-.1.2-.1.4.2 0 .2-.3.4-.4 0-.1-.1-.1-.1-.1.1 0 .1-.2.1-.3.1-.1.2-.2.1-.3h.1c-.1-.2 0-.1 0-.3-.2.1-.2.4-.4.5 0 .1.1.1.2.1 0 .1-.1.1-.1.2-.1-.1-.2.1-.3.1-.1-.2.1-.2 0-.4.1 0 .1-.1.2-.1.1-.3.2-.6.4-.8.1 0 .1.1.1.1.1-.1.1-.2.1-.3-.1 0-.1.1-.1.2-.1 0-.1-.1-.1-.1-.2.2-.4.5-.4.8-.1 0-.1.1-.2.1-.4 1.1-.5 1.4-.8 2.5-.1 0-.1.1-.1.1 0 .3-.3.7-.4 1-.2-.1.1-.8-.2-.9-.2-.7.2-.7.3-1.3.2-.4.3-.4.4-.8.4-.7.7-1.4 1-2 0-.1.1-.2 0-.3l.2-.2c-.1-.1.1-.1.1-.2.3-.4.5-.7.6-1.2.2-.2.4-.6.5-.9.1-.2.2-.2.2-.4.1 0 .1-.1.1-.1.2-.5.4-.9.7-1.2 0-.2.3-.3.2-.6l.6-.9V18c.2-.1.4-.4.4-.7.8-.1.5.7.5 1.1-.1 0-.1.1-.1.1.1.4-.3.5-.2.8-.1.1-.3.2-.2.5-.1.1-.1.2-.2.2v.2c-.3.4-.4.8-.6 1.2 0 .1 0 .1.1.1-.1.1-.2.2-.2.3 0 .4-.3.6-.4.9 0 .2 0 .3-.1.5-.1 0-.3-.1-.4.1 0 .1.1.1.2.1-.1.7-.5 1.2-.7 1.7-.2-.1 0-.5-.2-.6-.2.1-.3.2-.4.4 0 .1.1.1.1.2.1 0 .1 0 .2.1.1.2-.1.4 0 .6-.2.2-.2.6-.5.8-.1.3-.4.5-.5.8h-.1c0 .3-.5.4-.3.7-.4.8-.5.9-.7 1.9-.4-.4-.4-.5-.4-.6m.3 7.9c-.1-.1-.1-.2-.2-.4.1-.1.3-.2.4-.1-.1.1-.1.3-.2.5m.3-2.3c-.1-.1-.1-.3-.1-.4h.1v.4m-.1-5.3c-.1-.2.2-.3 0-.5.2-.4.4-.8.5-1.4.3-.5.6-.9.9-1.4.1.1-.1.3-.2.4.1.2-.1.2-.1.4-.2.1-.1.4-.3.4 0 .5-.4.7-.4 1.1-.1.4-.1.8-.4 1m.3 1.7c.1-.8.7-1.3.8-2.1.3-.3.4-.8.6-1.1V28c.5-.7.8-1.5 1.3-2.3h.1c.1.2-.2.2-.1.5-.2.3-.4.7-.5 1.1-.4.5-.5 1.4-.9 2 0 .4-.4.7-.4 1.1-.2.2-.4.5-.6.7 0 .1 0 .3-.2.3h-.1m2-1.1c0 .1-.1.1-.1.1-.1 0 0-.1.1-.1M21 34c-.1-.2 0-.3.1-.4 0-.1-.1-.1-.1-.2.2-.2.4-.4.5-.7h.1c-.2.5-.3 1-.6 1.3m.2 1.1c-.2-.1 0-.4.1-.4.1-.3.2-.5.3-.8.2-.2.2-.5.5-.7.1-.3.2-.4.2-.7.2-.1.2-.5.4-.7-.1-.2.2-.2.2-.4.1 0 0 .2.1.2-.2.1-.2.4-.4.5 0 .4-.1.5-.4.7 0 .2-.1.2-.1.4 0 .1.1.1.1.2-.2.2-.5.4-.4.8-.2.1-.4.3-.3.6-.2-.1-.3.1-.3.3m1.4-2.2c.1.1.1.2-.1.2 0-.1.1-.2.1-.2m0 .3c0 .2-.1.3-.2.4-.1-.1.1-.3.2-.4m-.7 1.7c0-.4.2-.6.3-.9.1-.1.1-.2.2-.2.1.4-.4.7-.5 1.1m5.4-7.1c-.2.8-.7 1.5-.9 2.3-.1 0-.1.1-.1.1-.2.4-.5.8-.6 1.2-.5.7-.8 1.5-1.3 2.3-.1.2-.2.3-.4.5-.3.5-.7 1.1-1 1.7-.5.7-.7 1.1-1.2 1.6l-.5.5c0-.2.2-.2.2-.3 0-.3.3-.4.2-.7.2-.2 0-.3.2-.5.1-.1.1-.3.1-.3.2-.1.4-.2.3-.5.2-.1.2-.4.2-.4.1-.2.2-.4.4-.5 0-.1-.1-.1-.1-.2.2-.2.4-.5.5-.9.4-.2.4-.7.7-.9 0-.5.5-.6.4-1.1.1-.1.1-.1.2-.1v-.2c.2-.1.2-.4.4-.4.2-.7.8-1.2.9-1.9.1-.1.1-.1.2-.1v-.2c.2-.2.4-.5.5-.8.4-.4.5-.9.9-1.2 0-.1.1-.1.1-.2.3-.2.4-.7.6-1l.2-.2h.1c-.1.7-.5 1.1-.5 1.8-.4-.1-.5.3-.7.6" fill="#EE2D24"></path><path class="st0" d="M21.9 23.9c-.1.2-.1.3-.1.5.2-.1.4-.5.1-.5M14.8 33.4c0-.2-.3 0 0 0M21.8 24.4c-.1 0-.1.1 0 .2.1 0 .1-.2 0-.2M22.8 23.4h-.1v.1c.1 0 0-.1.1-.1M21.9 25l-.1.1c.1 0 .1-.1.1-.1M14.8 33.5c-.1.1 0 .3.1.3.1-.1.1-.2.1-.3 0-.1-.1-.1-.2 0M21.3 26.9c.1 0 0-.2-.1-.2 0 .1 0 .2.1.2" fill="#EE2D24"></path><path d="M31.2 19.2h2.4v15.3h-2.4zM44.1 29.4l-1.5-2.9-4.3-7.3h-1.9v15.2h2.4v-10l1.5 2.7 4.4 7.3h1.7V19.2h-2.3zM54.3 19.2h-5v15.3h5c3.2 0 4.7-2 4.7-4.5v-6.3c0-2.6-1.5-4.5-4.7-4.5m2.2 10.5c0 1.6-.8 2.6-2.5 2.6h-2.3v-11H54c1.7 0 2.5 1 2.5 2.6v5.8zM96.7 18.6c-3.4 0-5 2.1-5 5v6.2c0 2.9 1.5 5 5 5s5-2.1 5-5v-6.2c0-2.9-1.5-5-5-5m2.5 11.3c0 1.6-.8 2.6-2.5 2.6s-2.5-1.1-2.5-2.6v-6.5c0-1.6.8-2.6 2.5-2.6s2.5 1.1 2.5 2.6v6.5zM111.7 30.2c0 1.6-.8 2.4-2.5 2.4s-2.5-.8-2.5-2.4V18.9h-2.5v11.3c0 2.9 2 4.4 5 4.4 2.9 0 5-1.6 5-4.4V18.9h-2.4l-.1 11.3zM124.7 29.2l-1.5-2.8-4.3-7.5H117v15.3h2.2V24.1l1.6 2.8 4.5 7.3h1.6V18.9h-2.2zM134.8 18.9h-5v15.3h5c3.2 0 4.7-2 4.7-4.5v-6.3c0-2.4-1.4-4.5-4.7-4.5m2.3 10.7c0 1.6-.8 2.6-2.5 2.6h-2.3v-11h2.3c1.7 0 2.5 1 2.5 2.6v5.8zM141.7 33.2v.2c0 .2.1.2.2.2h.1v-.2c-.1 0-.1 0-.1-.1v-.2c0-.2-.1-.2-.2-.3.2-.1.2-.2.2-.3 0-.2-.1-.4-.4-.4h-.5v1.3h.2V33h.3c.2 0 .2.2.2.2m-.5-.7h.3c.1 0 .2.1.2.2 0 .2-.1.2-.2.2h-.3v-.4z"></path><path d="M142.8 32.9c0-.8-.5-1.3-1.3-1.3s-1.3.6-1.3 1.3c0 .8.5 1.3 1.3 1.3s1.3-.5 1.3-1.3m-2.4 0c0-.6.5-1.1 1.1-1.1s1.1.5 1.1 1.1c0 .6-.5 1.1-1.1 1.1-.7.1-1.1-.5-1.1-1.1M61.6 19.2H64v15.2h-2.4zM75.1 21.3v-2.1h-8.3v15.2h8.3v-2.2h-5.9v-4.8h4.3v-2.1h-4.3v-4zM85.3 19h.2v-.1h-2.9v.1h2.7z"></path><path d="M85.4 18.9c0 .1 0 .1-.1.1h-2.7v-.1h-2.4v15.4h5.3c3 0 4.1-1.5 4.1-3.8v-1.1c0-1.7-.8-2.9-2.5-3.2 1.5-.3 2.3-1.2 2.3-3.1v-.6c0-2-.8-3.5-3.2-3.7l-.8.1zm1.8 11.6c0 1-.4 1.7-1.7 1.7h-2.9v-4.7h2.6c1.3 0 1.9.7 1.9 2l.1 1zm-.2-7.8v1c0 1.3-.7 2-1.9 2h-2.4l-.1-4.7h2.7c1.3 0 1.7.7 1.7 1.7z"></path></svg>